<mxfile host="app.diagrams.net" modified="2023-04-25T20:41:04.350Z" agent="Mozilla/5.0 (Windows NT 10.0; Win64; x64) AppleWebKit/537.36 (KHTML, like Gecko) Chrome/112.0.0.0 Safari/537.36" etag="P0r3NYE9GRgUA5e1mmVe" version="21.1.6" type="github">
  <diagram name="Página-1" id="QNMuknKPBChuBiIpFeF7">
    <mxGraphModel dx="1434" dy="796" grid="1" gridSize="10" guides="1" tooltips="1" connect="1" arrows="1" fold="1" page="1" pageScale="1" pageWidth="827" pageHeight="1169" math="0" shadow="0">
      <root>
        <mxCell id="0" />
        <mxCell id="1" parent="0" />
        <mxCell id="HFJDue4-8qjP7p8P5Bym-7" style="rounded=0;orthogonalLoop=1;jettySize=auto;html=1;exitX=0.376;exitY=0.976;exitDx=0;exitDy=0;exitPerimeter=0;entryX=0.75;entryY=0;entryDx=0;entryDy=0;endArrow=none;endFill=0;" edge="1" parent="1" source="HFJDue4-8qjP7p8P5Bym-2" target="HFJDue4-8qjP7p8P5Bym-4">
          <mxGeometry relative="1" as="geometry" />
        </mxCell>
        <mxCell id="HFJDue4-8qjP7p8P5Bym-2" value="" style="verticalLabelPosition=bottom;verticalAlign=top;html=1;shape=mxgraph.basic.acute_triangle;dx=0.5;" vertex="1" parent="1">
          <mxGeometry x="270" y="120" width="100" height="50" as="geometry" />
        </mxCell>
        <mxCell id="HFJDue4-8qjP7p8P5Bym-10" style="edgeStyle=none;shape=connector;rounded=0;orthogonalLoop=1;jettySize=auto;html=1;entryX=0;entryY=0;entryDx=50;entryDy=0;entryPerimeter=0;labelBackgroundColor=default;strokeColor=default;fontFamily=Helvetica;fontSize=11;fontColor=default;endArrow=none;endFill=0;" edge="1" parent="1" source="HFJDue4-8qjP7p8P5Bym-3" target="HFJDue4-8qjP7p8P5Bym-2">
          <mxGeometry relative="1" as="geometry" />
        </mxCell>
        <mxCell id="HFJDue4-8qjP7p8P5Bym-3" value="cliente" style="rounded=1;whiteSpace=wrap;html=1;" vertex="1" parent="1">
          <mxGeometry x="260" y="10" width="120" height="60" as="geometry" />
        </mxCell>
        <mxCell id="HFJDue4-8qjP7p8P5Bym-19" style="edgeStyle=none;shape=connector;rounded=0;orthogonalLoop=1;jettySize=auto;html=1;labelBackgroundColor=default;strokeColor=default;fontFamily=Helvetica;fontSize=11;fontColor=default;endArrow=none;endFill=0;" edge="1" parent="1" source="HFJDue4-8qjP7p8P5Bym-4">
          <mxGeometry relative="1" as="geometry">
            <mxPoint x="110.00000000000006" y="270" as="targetPoint" />
          </mxGeometry>
        </mxCell>
        <mxCell id="HFJDue4-8qjP7p8P5Bym-20" style="edgeStyle=none;shape=connector;rounded=0;orthogonalLoop=1;jettySize=auto;html=1;entryX=0.5;entryY=0;entryDx=0;entryDy=0;labelBackgroundColor=default;strokeColor=default;fontFamily=Helvetica;fontSize=11;fontColor=default;endArrow=none;endFill=0;" edge="1" parent="1" source="HFJDue4-8qjP7p8P5Bym-4" target="HFJDue4-8qjP7p8P5Bym-18">
          <mxGeometry relative="1" as="geometry" />
        </mxCell>
        <mxCell id="HFJDue4-8qjP7p8P5Bym-4" value="pessoa física" style="rounded=1;whiteSpace=wrap;html=1;" vertex="1" parent="1">
          <mxGeometry x="120" y="240" width="120" height="60" as="geometry" />
        </mxCell>
        <mxCell id="HFJDue4-8qjP7p8P5Bym-9" style="edgeStyle=none;shape=connector;rounded=0;orthogonalLoop=1;jettySize=auto;html=1;entryX=0.624;entryY=1.008;entryDx=0;entryDy=0;entryPerimeter=0;labelBackgroundColor=default;strokeColor=default;fontFamily=Helvetica;fontSize=11;fontColor=default;endArrow=none;endFill=0;" edge="1" parent="1" source="HFJDue4-8qjP7p8P5Bym-5" target="HFJDue4-8qjP7p8P5Bym-2">
          <mxGeometry relative="1" as="geometry" />
        </mxCell>
        <mxCell id="HFJDue4-8qjP7p8P5Bym-21" style="edgeStyle=none;shape=connector;rounded=0;orthogonalLoop=1;jettySize=auto;html=1;entryX=0;entryY=0.5;entryDx=0;entryDy=0;labelBackgroundColor=default;strokeColor=default;fontFamily=Helvetica;fontSize=11;fontColor=default;endArrow=none;endFill=0;" edge="1" parent="1" source="HFJDue4-8qjP7p8P5Bym-5" target="HFJDue4-8qjP7p8P5Bym-15">
          <mxGeometry relative="1" as="geometry" />
        </mxCell>
        <mxCell id="HFJDue4-8qjP7p8P5Bym-22" style="edgeStyle=none;shape=connector;rounded=0;orthogonalLoop=1;jettySize=auto;html=1;entryX=0.5;entryY=0;entryDx=0;entryDy=0;labelBackgroundColor=default;strokeColor=default;fontFamily=Helvetica;fontSize=11;fontColor=default;endArrow=none;endFill=0;" edge="1" parent="1" source="HFJDue4-8qjP7p8P5Bym-5" target="HFJDue4-8qjP7p8P5Bym-16">
          <mxGeometry relative="1" as="geometry" />
        </mxCell>
        <mxCell id="HFJDue4-8qjP7p8P5Bym-5" value="pessoa juridica" style="rounded=1;whiteSpace=wrap;html=1;" vertex="1" parent="1">
          <mxGeometry x="380" y="240" width="120" height="60" as="geometry" />
        </mxCell>
        <mxCell id="HFJDue4-8qjP7p8P5Bym-12" style="edgeStyle=none;shape=connector;rounded=0;orthogonalLoop=1;jettySize=auto;html=1;exitX=0;exitY=0.5;exitDx=0;exitDy=0;labelBackgroundColor=default;strokeColor=default;fontFamily=Helvetica;fontSize=11;fontColor=default;endArrow=classic;endFill=1;" edge="1" parent="1" source="HFJDue4-8qjP7p8P5Bym-11" target="HFJDue4-8qjP7p8P5Bym-2">
          <mxGeometry relative="1" as="geometry" />
        </mxCell>
        <mxCell id="HFJDue4-8qjP7p8P5Bym-11" value="herança" style="text;html=1;strokeColor=none;fillColor=none;align=center;verticalAlign=middle;whiteSpace=wrap;rounded=0;fontSize=11;fontFamily=Helvetica;fontColor=default;" vertex="1" parent="1">
          <mxGeometry x="390" y="130" width="60" height="30" as="geometry" />
        </mxCell>
        <mxCell id="HFJDue4-8qjP7p8P5Bym-15" value="cnpj" style="ellipse;whiteSpace=wrap;html=1;align=center;fontFamily=Helvetica;fontSize=11;fontColor=default;" vertex="1" parent="1">
          <mxGeometry x="520" y="250" width="100" height="40" as="geometry" />
        </mxCell>
        <mxCell id="HFJDue4-8qjP7p8P5Bym-16" value="tipo" style="ellipse;whiteSpace=wrap;html=1;align=center;fontFamily=Helvetica;fontSize=11;fontColor=default;" vertex="1" parent="1">
          <mxGeometry x="390" y="320" width="100" height="40" as="geometry" />
        </mxCell>
        <mxCell id="HFJDue4-8qjP7p8P5Bym-17" value="cpf" style="ellipse;whiteSpace=wrap;html=1;align=center;fontFamily=Helvetica;fontSize=11;fontColor=default;" vertex="1" parent="1">
          <mxGeometry x="10" y="250" width="100" height="40" as="geometry" />
        </mxCell>
        <mxCell id="HFJDue4-8qjP7p8P5Bym-18" value="genero" style="ellipse;whiteSpace=wrap;html=1;align=center;fontFamily=Helvetica;fontSize=11;fontColor=default;" vertex="1" parent="1">
          <mxGeometry x="130" y="320" width="100" height="40" as="geometry" />
        </mxCell>
        <mxCell id="HFJDue4-8qjP7p8P5Bym-23" value="Filial" style="rounded=1;whiteSpace=wrap;html=1;" vertex="1" parent="1">
          <mxGeometry x="590" y="10" width="120" height="60" as="geometry" />
        </mxCell>
        <mxCell id="HFJDue4-8qjP7p8P5Bym-25" style="edgeStyle=none;shape=connector;rounded=0;orthogonalLoop=1;jettySize=auto;html=1;entryX=1;entryY=0.5;entryDx=0;entryDy=0;labelBackgroundColor=default;strokeColor=default;fontFamily=Helvetica;fontSize=11;fontColor=default;endArrow=none;endFill=0;" edge="1" parent="1" source="HFJDue4-8qjP7p8P5Bym-24" target="HFJDue4-8qjP7p8P5Bym-3">
          <mxGeometry relative="1" as="geometry" />
        </mxCell>
        <mxCell id="HFJDue4-8qjP7p8P5Bym-26" style="edgeStyle=none;shape=connector;rounded=0;orthogonalLoop=1;jettySize=auto;html=1;exitX=1;exitY=0.5;exitDx=0;exitDy=0;entryX=0;entryY=0.5;entryDx=0;entryDy=0;labelBackgroundColor=default;strokeColor=default;fontFamily=Helvetica;fontSize=11;fontColor=default;endArrow=none;endFill=0;" edge="1" parent="1" source="HFJDue4-8qjP7p8P5Bym-24" target="HFJDue4-8qjP7p8P5Bym-23">
          <mxGeometry relative="1" as="geometry" />
        </mxCell>
        <mxCell id="HFJDue4-8qjP7p8P5Bym-28" value="1" style="edgeLabel;html=1;align=center;verticalAlign=middle;resizable=0;points=[];fontSize=11;fontFamily=Helvetica;fontColor=default;" vertex="1" connectable="0" parent="HFJDue4-8qjP7p8P5Bym-26">
          <mxGeometry x="-0.0806" relative="1" as="geometry">
            <mxPoint as="offset" />
          </mxGeometry>
        </mxCell>
        <mxCell id="HFJDue4-8qjP7p8P5Bym-24" value="associado" style="shape=rhombus;perimeter=rhombusPerimeter;whiteSpace=wrap;html=1;align=center;fontFamily=Helvetica;fontSize=11;fontColor=default;" vertex="1" parent="1">
          <mxGeometry x="430" y="10" width="120" height="60" as="geometry" />
        </mxCell>
        <mxCell id="HFJDue4-8qjP7p8P5Bym-30" value="Consulta" style="shape=associativeEntity;whiteSpace=wrap;html=1;align=center;fontFamily=Helvetica;fontSize=11;fontColor=default;" vertex="1" parent="1">
          <mxGeometry x="255" y="560" width="140" height="60" as="geometry" />
        </mxCell>
        <mxCell id="HFJDue4-8qjP7p8P5Bym-37" style="edgeStyle=none;shape=connector;rounded=0;orthogonalLoop=1;jettySize=auto;html=1;entryX=0.5;entryY=0;entryDx=0;entryDy=0;labelBackgroundColor=default;strokeColor=default;fontFamily=Helvetica;fontSize=11;fontColor=default;endArrow=none;endFill=0;" edge="1" parent="1" source="HFJDue4-8qjP7p8P5Bym-31" target="HFJDue4-8qjP7p8P5Bym-36">
          <mxGeometry relative="1" as="geometry" />
        </mxCell>
        <mxCell id="HFJDue4-8qjP7p8P5Bym-31" value="Medicmento" style="rounded=1;whiteSpace=wrap;html=1;" vertex="1" parent="1">
          <mxGeometry x="265" y="400" width="120" height="60" as="geometry" />
        </mxCell>
        <mxCell id="HFJDue4-8qjP7p8P5Bym-39" style="edgeStyle=none;shape=connector;rounded=0;orthogonalLoop=1;jettySize=auto;html=1;entryX=1;entryY=0.5;entryDx=0;entryDy=0;labelBackgroundColor=default;strokeColor=default;fontFamily=Helvetica;fontSize=11;fontColor=default;endArrow=none;endFill=0;" edge="1" parent="1" source="HFJDue4-8qjP7p8P5Bym-32" target="HFJDue4-8qjP7p8P5Bym-30">
          <mxGeometry relative="1" as="geometry" />
        </mxCell>
        <mxCell id="HFJDue4-8qjP7p8P5Bym-32" value="Paciente" style="rounded=1;whiteSpace=wrap;html=1;" vertex="1" parent="1">
          <mxGeometry x="425" y="560" width="120" height="60" as="geometry" />
        </mxCell>
        <mxCell id="HFJDue4-8qjP7p8P5Bym-40" style="edgeStyle=none;shape=connector;rounded=0;orthogonalLoop=1;jettySize=auto;html=1;entryX=0;entryY=0.5;entryDx=0;entryDy=0;labelBackgroundColor=default;strokeColor=default;fontFamily=Helvetica;fontSize=11;fontColor=default;endArrow=none;endFill=0;" edge="1" parent="1" source="HFJDue4-8qjP7p8P5Bym-33" target="HFJDue4-8qjP7p8P5Bym-30">
          <mxGeometry relative="1" as="geometry" />
        </mxCell>
        <mxCell id="HFJDue4-8qjP7p8P5Bym-33" value="Médico" style="rounded=1;whiteSpace=wrap;html=1;" vertex="1" parent="1">
          <mxGeometry x="95" y="560" width="120" height="60" as="geometry" />
        </mxCell>
        <mxCell id="HFJDue4-8qjP7p8P5Bym-34" style="edgeStyle=none;shape=connector;rounded=0;orthogonalLoop=1;jettySize=auto;html=1;entryX=0.5;entryY=0;entryDx=0;entryDy=0;labelBackgroundColor=default;strokeColor=default;fontFamily=Helvetica;fontSize=11;fontColor=default;endArrow=none;endFill=0;" edge="1" parent="1" target="HFJDue4-8qjP7p8P5Bym-35">
          <mxGeometry relative="1" as="geometry">
            <mxPoint x="325" y="620" as="sourcePoint" />
          </mxGeometry>
        </mxCell>
        <mxCell id="HFJDue4-8qjP7p8P5Bym-35" value="data" style="ellipse;whiteSpace=wrap;html=1;align=center;fontFamily=Helvetica;fontSize=11;fontColor=default;" vertex="1" parent="1">
          <mxGeometry x="275" y="640" width="100" height="40" as="geometry" />
        </mxCell>
        <mxCell id="HFJDue4-8qjP7p8P5Bym-38" style="edgeStyle=none;shape=connector;rounded=0;orthogonalLoop=1;jettySize=auto;html=1;entryX=0.5;entryY=0;entryDx=0;entryDy=0;labelBackgroundColor=default;strokeColor=default;fontFamily=Helvetica;fontSize=11;fontColor=default;endArrow=none;endFill=0;" edge="1" parent="1" source="HFJDue4-8qjP7p8P5Bym-36" target="HFJDue4-8qjP7p8P5Bym-30">
          <mxGeometry relative="1" as="geometry" />
        </mxCell>
        <mxCell id="HFJDue4-8qjP7p8P5Bym-36" value="prescrição" style="shape=rhombus;perimeter=rhombusPerimeter;whiteSpace=wrap;html=1;align=center;fontFamily=Helvetica;fontSize=11;fontColor=default;" vertex="1" parent="1">
          <mxGeometry x="265" y="480" width="120" height="60" as="geometry" />
        </mxCell>
        <mxCell id="HFJDue4-8qjP7p8P5Bym-41" style="edgeStyle=none;shape=connector;rounded=0;orthogonalLoop=1;jettySize=auto;html=1;exitX=0;exitY=0.5;exitDx=0;exitDy=0;labelBackgroundColor=default;strokeColor=default;fontFamily=Helvetica;fontSize=11;fontColor=default;endArrow=classic;endFill=1;" edge="1" parent="1" source="HFJDue4-8qjP7p8P5Bym-42">
          <mxGeometry relative="1" as="geometry">
            <mxPoint x="400" y="540" as="targetPoint" />
          </mxGeometry>
        </mxCell>
        <mxCell id="HFJDue4-8qjP7p8P5Bym-42" value="entidade associativa" style="text;html=1;strokeColor=none;fillColor=none;align=center;verticalAlign=middle;whiteSpace=wrap;rounded=0;fontSize=11;fontFamily=Helvetica;fontColor=default;" vertex="1" parent="1">
          <mxGeometry x="430" y="490" width="64" height="30" as="geometry" />
        </mxCell>
      </root>
    </mxGraphModel>
  </diagram>
</mxfile>
